<svg width="28" height="28" viewBox="0 0 28 28" fill="none" xmlns="http://www.w3.org/2000/svg">
<rect width="28" height="28" rx="4" fill="#FFD9DA"/>
<path d="M22.4632 10.3728C22.3125 10.1719 22.1016 10.0312 21.8705 9.94085C21.8806 10.1217 21.8806 10.3225 21.8203 10.5134L18.8069 20.4275C18.6964 20.7891 18.2645 21 17.8929 21H8.62165C8.0692 21 7.37612 20.8795 7.17522 20.2969C7.09487 20.0759 7.10491 19.9855 7.18527 19.865C7.27567 19.7444 7.43638 19.7143 7.56696 19.7143H16.2958C17.5714 19.7143 17.8326 19.3728 18.3047 17.8259L21.0569 8.72545C21.1975 8.25335 21.1373 7.78125 20.8761 7.41964C20.625 7.06808 20.2031 6.85714 19.731 6.85714H12.0871C11.9163 6.85714 11.7455 6.90737 11.5748 6.94754L11.5848 6.91741C10.3092 6.5558 10.2288 7.93192 9.80692 8.55469C9.64621 8.78571 9.40513 8.98661 9.36496 9.17745C9.33482 9.35826 9.43527 9.52902 9.41518 9.69978C9.35491 10.2321 8.95312 11.1864 8.71205 11.5179C8.56138 11.7188 8.3404 11.8192 8.27009 12.0502C8.20982 12.2109 8.31027 12.442 8.29018 12.6529C8.23996 13.125 7.88839 14.019 7.61719 14.481C7.51674 14.6618 7.32589 14.8025 7.27567 14.9933C7.22545 15.1641 7.32589 15.385 7.27567 15.5759C7.16518 16.0982 6.82366 16.9118 6.52232 17.4141C6.36161 17.6853 6.15067 17.856 6.11049 18.0971C6.0904 18.2176 6.1808 18.3482 6.17076 18.5089C6.16071 18.75 6.12054 18.9509 6.10045 19.1518C5.95982 19.5335 5.95982 19.9754 6.12054 20.4275C6.49219 21.4721 7.58705 22.2857 8.61161 22.2857H17.8828C18.7467 22.2857 19.6306 21.6228 19.8817 20.769L22.644 11.6685C22.7846 11.2065 22.7143 10.7344 22.4632 10.3728ZM11.7757 10.3929L11.9866 9.75C12.0469 9.5692 12.2377 9.42857 12.4085 9.42857H18.5156C18.6964 9.42857 18.7969 9.5692 18.7366 9.75L18.5257 10.3929C18.4654 10.5737 18.2746 10.7143 18.1038 10.7143H11.9967C11.8158 10.7143 11.7154 10.5737 11.7757 10.3929ZM10.942 12.9643L11.1529 12.3214C11.2132 12.1406 11.404 12 11.5748 12H17.6819C17.8627 12 17.9632 12.1406 17.9029 12.3214L17.692 12.9643C17.6317 13.1451 17.4408 13.2857 17.2701 13.2857H11.1629C10.9821 13.2857 10.8817 13.1451 10.942 12.9643Z" fill="#E9523F"/>
</svg>
