<svg width="28" height="28" viewBox="0 0 28 28" fill="none" xmlns="http://www.w3.org/2000/svg">
<rect width="28" height="28" rx="4" fill="#334F60"/>
<path d="M19.0882 15.2545C19.2087 15.1239 19.2087 14.923 19.0882 14.8025L18.6261 14.3404C18.5056 14.2199 18.3047 14.2199 18.1741 14.3404L13.7143 18.8002L11.5045 16.5904C11.3739 16.4699 11.173 16.4699 11.0525 16.5904L10.5904 17.0525C10.4699 17.173 10.4699 17.3739 10.5904 17.5045L13.4833 20.3973C13.6138 20.5179 13.8147 20.5179 13.9453 20.3973L19.0882 15.2545ZM7.28571 22.2857V12H21.4286V22.2857H7.28571ZM11.1429 10.0714C11.1429 10.2522 11.0022 10.3929 10.8214 10.3929H10.1786C9.99777 10.3929 9.85714 10.2522 9.85714 10.0714V7.17857C9.85714 6.99777 9.99777 6.85714 10.1786 6.85714H10.8214C11.0022 6.85714 11.1429 6.99777 11.1429 7.17857V10.0714ZM18.8571 10.0714C18.8571 10.2522 18.7165 10.3929 18.5357 10.3929H17.8929C17.7121 10.3929 17.5714 10.2522 17.5714 10.0714V7.17857C17.5714 6.99777 17.7121 6.85714 17.8929 6.85714H18.5357C18.7165 6.85714 18.8571 6.99777 18.8571 7.17857V10.0714ZM22.7143 9.42857C22.7143 8.72545 22.1317 8.14286 21.4286 8.14286H20.1429V7.17857C20.1429 6.29464 19.4196 5.57143 18.5357 5.57143H17.8929C17.0089 5.57143 16.2857 6.29464 16.2857 7.17857V8.14286H12.4286V7.17857C12.4286 6.29464 11.7054 5.57143 10.8214 5.57143H10.1786C9.29464 5.57143 8.57143 6.29464 8.57143 7.17857V8.14286H7.28571C6.58259 8.14286 6 8.72545 6 9.42857V22.2857C6 22.9888 6.58259 23.5714 7.28571 23.5714H21.4286C22.1317 23.5714 22.7143 22.9888 22.7143 22.2857V9.42857Z" fill="#BFD0DB"/>
</svg>
