<svg width="300" height="64" viewBox="0 0 300 64" fill="none" xmlns="http://www.w3.org/2000/svg">
<path fill-rule="evenodd" clip-rule="evenodd" d="M57.7579 50.9912C57.506 50.997 57.2533 51 57 51C39.3269 51 25 36.6731 25 19C25 11.8896 27.3191 5.32079 31.2421 0.00878906C13.9191 0.411387 0 14.5802 0 32C0 49.6731 14.3269 64 32 64C42.5627 64 51.9301 58.8823 57.7579 50.9912Z" fill="#FCCA35"/>
<circle cx="45" cy="24" r="8" fill="black"/>
<path d="M104.774 34.3467H93.4541V41.4629H106.825V47H86.2559V17.1406H106.866V22.6982H93.4541V28.9941H104.774V34.3467ZM116.73 47H109.799V15.5H116.73V47ZM131.742 47.4102C128.338 47.4102 125.583 46.3984 123.478 44.375C121.372 42.3379 120.319 39.6924 120.319 36.4385V35.8643C120.319 33.5947 120.736 31.5918 121.57 29.8555C122.418 28.1191 123.648 26.7793 125.262 25.8359C126.875 24.8789 128.789 24.4004 131.004 24.4004C134.121 24.4004 136.582 25.3711 138.387 27.3125C140.191 29.2402 141.094 31.9336 141.094 35.3926V38.0791H127.354C127.6 39.3232 128.14 40.3008 128.974 41.0117C129.808 41.7227 130.888 42.0781 132.214 42.0781C134.401 42.0781 136.11 41.3125 137.341 39.7812L140.499 43.5137C139.638 44.7031 138.414 45.6533 136.828 46.3643C135.256 47.0615 133.561 47.4102 131.742 47.4102ZM130.963 29.7324C128.939 29.7324 127.736 31.0723 127.354 33.752H134.326V33.2188C134.354 32.1113 134.073 31.2568 133.485 30.6553C132.897 30.04 132.057 29.7324 130.963 29.7324ZM150.425 24.8105L150.65 27.415C152.223 25.4053 154.335 24.4004 156.987 24.4004C159.79 24.4004 161.684 25.5146 162.668 27.7432C164.172 25.5146 166.346 24.4004 169.189 24.4004C173.688 24.4004 175.998 27.1211 176.121 32.5625V47H169.189V32.9932C169.189 31.8584 168.998 31.0312 168.615 30.5117C168.232 29.9922 167.535 29.7324 166.523 29.7324C165.156 29.7324 164.138 30.3408 163.468 31.5576L163.488 31.8447V47H156.557V33.0342C156.557 31.8721 156.372 31.0312 156.003 30.5117C155.634 29.9922 154.93 29.7324 153.891 29.7324C152.564 29.7324 151.553 30.3408 150.855 31.5576V47H143.944V24.8105H150.425ZM190.805 47.4102C187.4 47.4102 184.646 46.3984 182.54 44.375C180.435 42.3379 179.382 39.6924 179.382 36.4385V35.8643C179.382 33.5947 179.799 31.5918 180.633 29.8555C181.48 28.1191 182.711 26.7793 184.324 25.8359C185.938 24.8789 187.852 24.4004 190.066 24.4004C193.184 24.4004 195.645 25.3711 197.449 27.3125C199.254 29.2402 200.156 31.9336 200.156 35.3926V38.0791H186.416C186.662 39.3232 187.202 40.3008 188.036 41.0117C188.87 41.7227 189.95 42.0781 191.276 42.0781C193.464 42.0781 195.173 41.3125 196.403 39.7812L199.562 43.5137C198.7 44.7031 197.477 45.6533 195.891 46.3643C194.318 47.0615 192.623 47.4102 190.805 47.4102ZM190.025 29.7324C188.002 29.7324 186.799 31.0723 186.416 33.752H193.389V33.2188C193.416 32.1113 193.136 31.2568 192.548 30.6553C191.96 30.04 191.119 29.7324 190.025 29.7324ZM209.303 24.8105L209.528 27.415C211.06 25.4053 213.172 24.4004 215.865 24.4004C218.176 24.4004 219.898 25.0908 221.033 26.4717C222.182 27.8525 222.776 29.9307 222.817 32.7061V47H215.886V32.9932C215.886 31.8721 215.66 31.0518 215.209 30.5322C214.758 29.999 213.938 29.7324 212.748 29.7324C211.395 29.7324 210.39 30.2656 209.733 31.332V47H202.822V24.8105H209.303ZM234.712 19.2939V24.8105H238.362V29.6094H234.712V39.7607C234.712 40.5947 234.862 41.1758 235.163 41.5039C235.464 41.832 236.059 41.9961 236.947 41.9961C237.631 41.9961 238.205 41.9551 238.67 41.873V46.8154C237.426 47.2119 236.127 47.4102 234.773 47.4102C232.395 47.4102 230.638 46.8496 229.503 45.7285C228.368 44.6074 227.801 42.9053 227.801 40.6221V29.6094H224.971V24.8105H227.801V19.2939H234.712ZM253.6 47C253.354 46.5488 253.135 45.8857 252.943 45.0107C251.672 46.6104 249.895 47.4102 247.611 47.4102C245.52 47.4102 243.742 46.7812 242.279 45.5234C240.816 44.252 240.085 42.6592 240.085 40.7451C240.085 38.3389 240.974 36.5205 242.751 35.29C244.528 34.0596 247.112 33.4443 250.503 33.4443H252.636V32.2754C252.636 30.2383 251.754 29.2197 249.99 29.2197C248.35 29.2197 247.529 30.0264 247.529 31.6396H240.618C240.618 29.4932 241.527 27.75 243.346 26.4102C245.178 25.0703 247.509 24.4004 250.339 24.4004C253.169 24.4004 255.404 25.0908 257.045 26.4717C258.686 27.8525 259.526 29.7461 259.567 32.1523V41.9756C259.595 44.0127 259.909 45.5713 260.511 46.6514V47H253.6ZM249.272 42.4883C250.134 42.4883 250.845 42.3037 251.405 41.9346C251.979 41.5654 252.39 41.1484 252.636 40.6836V37.1357H250.626C248.22 37.1357 247.017 38.2158 247.017 40.376C247.017 41.0049 247.229 41.5176 247.652 41.9141C248.076 42.2969 248.616 42.4883 249.272 42.4883ZM276.835 31.0654L274.559 30.9014C272.385 30.9014 270.99 31.585 270.375 32.9521V47H263.464V24.8105H269.944L270.17 27.6611C271.332 25.4873 272.952 24.4004 275.03 24.4004C275.769 24.4004 276.411 24.4824 276.958 24.6465L276.835 31.0654ZM288.565 37.3203L292.257 24.8105H299.66L290.616 50.7119L290.227 51.6553C288.941 54.5264 286.672 55.9619 283.418 55.9619C282.516 55.9619 281.565 55.8252 280.567 55.5518V50.6094H281.47C282.44 50.6094 283.179 50.4658 283.685 50.1787C284.204 49.9053 284.587 49.4062 284.833 48.6816L285.387 47.2051L277.676 24.8105H285.059L288.565 37.3203Z" fill="black"/>
</svg>
